<svg width="77" height="74" viewBox="0 0 77 74" fill="none" xmlns="http://www.w3.org/2000/svg">
<path d="M22.6302 3.69L9.7002 73.91L76.9702 50L22.6302 3.69Z" fill="#FF9776"/>
<path d="M22.5502 54.04L13.3702 63.22C10.9802 65.61 7.11023 65.61 4.72023 63.22C2.33023 60.83 2.33023 56.96 4.72023 54.57L20.5002 38.8" stroke="#454545" stroke-width="4" stroke-miterlimit="10" stroke-linecap="round" stroke-linejoin="round"/>
<path d="M60.9304 33.56L48.8804 45.61C42.9304 51.56 33.2804 51.56 27.3204 45.61L22.7804 41.07C16.8304 35.12 16.8304 25.47 22.7804 19.51L34.8304 7.46002" stroke="#454545" stroke-width="4" stroke-miterlimit="10" stroke-linecap="round" stroke-linejoin="round"/>
<path d="M26.1904 16.12L52.2804 42.21" stroke="#454545" stroke-width="4" stroke-miterlimit="10" stroke-linecap="round" stroke-linejoin="round"/>
<path d="M39.6904 2.62L65.7904 28.71" stroke="#454545" stroke-width="4" stroke-miterlimit="10" stroke-linecap="round" stroke-linejoin="round"/>
<path d="M32.1104 22.03L40.7603 13.39" stroke="#454545" stroke-width="4" stroke-miterlimit="10" stroke-linecap="round" stroke-linejoin="round"/>
<path d="M39.0103 28.94L47.6603 20.29" stroke="#454545" stroke-width="4" stroke-miterlimit="10" stroke-linecap="round" stroke-linejoin="round"/>
<path d="M45.7603 35.69L54.4103 27.04" stroke="#454545" stroke-width="4" stroke-miterlimit="10" stroke-linecap="round" stroke-linejoin="round"/>
</svg>
