<svg width="86" height="102" viewBox="0 0 86 102" fill="none" xmlns="http://www.w3.org/2000/svg">
<path d="M75.4601 0.869995L64.9701 88.45L24.5301 101.04L0.600098 24.18L75.4601 0.869995Z" fill="#8486EC"/>
<path d="M22.8311 71.435L12.4155 61.0194L1.99995 71.435L12.4155 81.8506L22.8311 71.435Z" stroke="#454545" stroke-width="4" stroke-miterlimit="10" stroke-linecap="round" stroke-linejoin="round"/>
<path d="M22.8403 60.32C22.8403 60.32 43.6603 33.1 50.0203 39.45C56.3803 45.81 30.0603 65.99 37.8803 70.94C44.5403 75.16 64.1203 50.94 62.7303 52.16" stroke="#454545" stroke-width="4" stroke-miterlimit="10" stroke-linecap="round" stroke-linejoin="round"/>
<path d="M73.6501 49.63L66.5101 42.49C60.8201 36.8 66.8701 30.44 73.6501 37.23C80.1801 30.7 86.5101 36.78 80.7901 42.49L73.6501 49.63Z" stroke="#454545" stroke-width="4" stroke-miterlimit="10" stroke-linecap="round" stroke-linejoin="round"/>
</svg>
