<svg width="100" height="62" viewBox="0 0 100 62" fill="none" xmlns="http://www.w3.org/2000/svg">
<path d="M86.2401 59.23C82.0301 59.23 77.8901 57 75.2401 52.82C72.5001 48.49 66.9001 45.2 61.3001 44.63C58.3401 44.33 54.8601 44.7 51.1701 45.09C47.5501 45.47 43.8001 45.88 39.7301 45.78C26.9001 45.49 14.5401 40.27 4.91014 31.06C-0.829862 25.58 -1.57986 15.83 3.23014 9.28997C8.04014 2.74997 16.5901 1.89999 22.3301 7.37999C27.1601 12 33.6901 14.73 40.2601 14.88C42.8101 14.94 45.6501 14.64 48.6601 14.32C53.1701 13.84 58.2901 13.3 63.7201 13.86C77.1001 15.23 89.9401 23.23 97.2301 34.75C101.61 41.67 100.24 51.33 94.1701 56.32C91.7601 58.28 88.9901 59.23 86.2401 59.23Z" fill="#FF9776"/>
<path d="M49.9201 26.57C48.4801 26.57 47.3101 25.4 47.3101 23.96C47.3101 22.52 48.4801 21.35 49.9201 21.35C51.3601 21.35 52.5301 22.52 52.5301 23.96C52.5301 25.4 51.3601 26.57 49.9201 26.57Z" fill="#454545"/>
<path d="M66.8401 2.51002C66.8401 2.51002 49.6801 -2.84998 33.3701 34.69L42.5901 36.84C42.5901 36.84 37.8701 67.73 69.6201 56.58" stroke="#454545" stroke-width="4" stroke-miterlimit="10" stroke-linecap="round" stroke-linejoin="round"/>
<path d="M32.9402 2.51002C32.9402 2.51002 50.1002 -2.84998 66.4102 34.69L57.1902 36.84C57.1902 36.84 61.9102 67.73 30.1602 56.58" stroke="#454545" stroke-width="4" stroke-miterlimit="10" stroke-linecap="round" stroke-linejoin="round"/>
</svg>
