<svg width="103" height="81" viewBox="0 0 103 81" fill="none" xmlns="http://www.w3.org/2000/svg">
<path d="M102.21 22.14L14.2201 80.74L0.140137 58.85L88.1301 0.25L102.21 22.14Z" fill="#00BEA9"/>
<path d="M49.0102 46.45L45.4902 42.93L41.5502 38.99C35.6102 33.05 41.9202 26.41 49.0102 33.49C55.8202 26.68 62.4402 33.02 56.4702 38.99L52.5502 42.91L49.0102 46.45Z" stroke="#454545" stroke-width="4" stroke-miterlimit="10" stroke-linecap="round" stroke-linejoin="round"/>
<path d="M40.9702 52.71C35.1502 49.77 31.1602 43.74 31.1602 36.78C31.1602 26.93 39.1401 18.95 48.9901 18.95C58.8401 18.95 66.8202 26.93 66.8202 36.78C66.8202 43.74 62.8302 49.77 57.0102 52.71" stroke="#454545" stroke-width="4" stroke-miterlimit="10" stroke-linecap="round" stroke-linejoin="round"/>
<path d="M57.02 52.71V68.18C57.02 72.61 53.43 76.2 49 76.2C44.57 76.2 40.98 72.61 40.98 68.18V52.72" stroke="#454545" stroke-width="4" stroke-miterlimit="10" stroke-linecap="round" stroke-linejoin="round"/>
<path d="M40.9702 68.17H57.0202" stroke="#454545" stroke-width="4" stroke-miterlimit="10" stroke-linecap="round" stroke-linejoin="round"/>
<path d="M40.9702 60.74H57.0202" stroke="#454545" stroke-width="4" stroke-miterlimit="10" stroke-linecap="round" stroke-linejoin="round"/>
<path d="M49.0103 46.45V60.74" stroke="#454545" stroke-width="4" stroke-miterlimit="10" stroke-linecap="round" stroke-linejoin="round"/>
<path d="M49 11.61V6.95001" stroke="#454545" stroke-width="4" stroke-miterlimit="10" stroke-linecap="round" stroke-linejoin="round"/>
<path d="M74.8403 35.83H79.5003" stroke="#454545" stroke-width="4" stroke-miterlimit="10" stroke-linecap="round" stroke-linejoin="round"/>
<path d="M70.3301 15.9L66.6201 18.71" stroke="#454545" stroke-width="4" stroke-miterlimit="10" stroke-linecap="round" stroke-linejoin="round"/>
<path d="M27.01 50.81L23.29 53.62" stroke="#454545" stroke-width="4" stroke-miterlimit="10" stroke-linecap="round" stroke-linejoin="round"/>
<path d="M70.23 50.81L73.94 53.62" stroke="#454545" stroke-width="4" stroke-miterlimit="10" stroke-linecap="round" stroke-linejoin="round"/>
<path d="M24.9102 16.61L28.6302 19.41" stroke="#454545" stroke-width="4" stroke-miterlimit="10" stroke-linecap="round" stroke-linejoin="round"/>
<path d="M18.6401 35.83H23.2901" stroke="#454545" stroke-width="4" stroke-miterlimit="10" stroke-linecap="round" stroke-linejoin="round"/>
</svg>
