<svg width="78" height="85" viewBox="0 0 78 85" fill="none" xmlns="http://www.w3.org/2000/svg">
<path d="M77.1602 21.08L53.8602 84.72L0.740234 65.27L52.5302 12.07L77.1602 21.08Z" fill="#FF667D"/>
<path d="M43.3701 11.53C45.9714 11.53 48.0801 9.42125 48.0801 6.81999C48.0801 4.21873 45.9714 2.10999 43.3701 2.10999C40.7689 2.10999 38.6602 4.21873 38.6602 6.81999C38.6602 9.42125 40.7689 11.53 43.3701 11.53Z" stroke="#454545" stroke-width="4" stroke-miterlimit="10" stroke-linecap="round" stroke-linejoin="round"/>
<path d="M29.7001 65.74C36.6699 65.74 42.3201 60.0898 42.3201 53.12C42.3201 46.1502 36.6699 40.5 29.7001 40.5C22.7303 40.5 17.0801 46.1502 17.0801 53.12C17.0801 60.0898 22.7303 65.74 29.7001 65.74Z" stroke="#454545" stroke-width="4" stroke-miterlimit="10" stroke-linecap="round" stroke-linejoin="round"/>
<path d="M43.3699 18.11C43.3699 18.11 44.0599 33.43 26.2299 33.43C8.39994 33.43 9.52992 50.13 9.52992 50.13" stroke="#454545" stroke-width="4" stroke-miterlimit="10" stroke-linecap="round" stroke-linejoin="round"/>
</svg>
